<svg width="39" height="37" viewBox="0 0 39 37" fill="none" xmlns="http://www.w3.org/2000/svg">
<g clip-path="url(#clip0_4_10)">
<path d="M19.4155 5.52832C16.7229 5.52826 14.0907 6.28901 11.8519 7.71437C9.61306 9.13973 7.86809 11.1657 6.83765 13.536C5.8072 15.9063 5.53758 18.5146 6.06286 21.0309C6.58815 23.5473 7.88476 25.8587 9.78871 27.6729C11.6927 29.487 14.1185 30.7225 16.7593 31.223C19.4002 31.7235 22.1375 31.4666 24.6252 30.4848C27.1128 29.5029 29.239 27.8402 30.7349 25.7069C32.2308 23.5737 33.0292 21.0656 33.0291 18.5C33.025 15.0609 31.5894 11.7638 29.0373 9.33195C26.4851 6.90013 23.0248 5.53222 19.4155 5.52832ZM30.7414 19.0061H31.9549C31.832 21.8259 30.6623 24.5125 28.6543 26.5871L27.8006 25.7737C27.7513 25.7267 27.6927 25.6894 27.6283 25.664C27.5639 25.6386 27.4949 25.6255 27.4252 25.6255C27.3554 25.6255 27.2864 25.6386 27.222 25.664C27.1576 25.6894 27.099 25.7267 27.0497 25.7737C27.0004 25.8207 26.9613 25.8764 26.9347 25.9378C26.908 25.9992 26.8942 26.065 26.8942 26.1314C26.8942 26.1978 26.908 26.2636 26.9347 26.325C26.9613 26.3864 27.0004 26.4421 27.0497 26.4891L27.9034 27.3025C25.7262 29.2159 22.9066 30.3304 19.9473 30.4475V29.2913C19.9473 29.1571 19.8914 29.0285 19.7918 28.9336C19.6923 28.8387 19.5572 28.7854 19.4164 28.7854C19.2756 28.7854 19.1406 28.8387 19.041 28.9336C18.9415 29.0285 18.8855 29.1571 18.8855 29.2913V30.4475C15.9262 30.3304 13.1067 29.2159 10.9294 27.3025L11.7831 26.4891C11.8324 26.4421 11.8715 26.3864 11.8982 26.325C11.9249 26.2636 11.9386 26.1978 11.9386 26.1314C11.9386 26.065 11.9249 25.9992 11.8982 25.9378C11.8715 25.8764 11.8324 25.8207 11.7831 25.7737C11.7338 25.7267 11.6753 25.6894 11.6108 25.664C11.5464 25.6386 11.4774 25.6255 11.4077 25.6255C11.3379 25.6255 11.2689 25.6386 11.2045 25.664C11.1401 25.6894 11.0816 25.7267 11.0323 25.7737L10.1786 26.5871C8.17055 24.5125 7.00086 21.8259 6.87794 19.0061H8.09141C8.23221 19.0061 8.36725 18.9529 8.46681 18.858C8.56637 18.7631 8.6223 18.6345 8.6223 18.5003C8.6223 18.3661 8.56637 18.2375 8.46681 18.1426C8.36725 18.0477 8.23221 17.9944 8.09141 17.9944H6.87794C7.00086 15.1747 8.17055 12.4881 10.1786 10.4135L11.0323 11.2269C11.1318 11.3218 11.2669 11.3751 11.4077 11.3751C11.5485 11.3751 11.6835 11.3218 11.7831 11.2269C11.8827 11.132 11.9386 11.0034 11.9386 10.8692C11.9386 10.735 11.8827 10.6063 11.7831 10.5115L10.9285 9.69805C13.1058 7.78471 15.9253 6.67016 18.8846 6.55305V7.7093C18.8846 7.84346 18.9405 7.97213 19.0401 8.06699C19.1397 8.16186 19.2747 8.21516 19.4155 8.21516C19.5563 8.21516 19.6913 8.16186 19.7909 8.06699C19.8905 7.97213 19.9464 7.84346 19.9464 7.7093V6.55305C22.9057 6.67016 25.7252 7.78471 27.9025 9.69805L27.0488 10.5115C26.9995 10.5584 26.9604 10.6142 26.9337 10.6756C26.9071 10.737 26.8933 10.8028 26.8933 10.8692C26.8933 10.9356 26.9071 11.0014 26.9337 11.0628C26.9604 11.1242 26.9995 11.1799 27.0488 11.2269C27.0981 11.2739 27.1567 11.3111 27.2211 11.3366C27.2855 11.362 27.3545 11.3751 27.4243 11.3751C27.494 11.3751 27.563 11.362 27.6274 11.3366C27.6918 11.3111 27.7504 11.2739 27.7997 11.2269L28.6533 10.4135C30.6614 12.4881 31.8311 15.1747 31.954 17.9944H30.7405C30.5997 17.9944 30.4647 18.0477 30.3651 18.1426C30.2656 18.2375 30.2096 18.3661 30.2096 18.5003C30.2096 18.6345 30.2656 18.7631 30.3651 18.858C30.4647 18.9529 30.5997 19.0061 30.7405 19.0061H30.7414Z" fill="#95E1D3"/>
<path d="M25.4449 17.9944H22.093C21.987 17.4897 21.7266 17.0261 21.3446 16.6622C20.9626 16.2982 20.4761 16.05 19.9464 15.949V10.9482C19.9464 10.8141 19.8905 10.6854 19.7909 10.5905C19.6913 10.4957 19.5563 10.4424 19.4155 10.4424C19.2747 10.4424 19.1397 10.4957 19.0401 10.5905C18.9405 10.6854 18.8846 10.8141 18.8846 10.9482V15.949C18.3994 16.0405 17.9493 16.2559 17.5826 16.5722C17.2158 16.8885 16.9461 17.2937 16.8023 17.7447C16.6585 18.1957 16.6459 18.6754 16.766 19.1326C16.8861 19.5898 17.1343 20.0074 17.484 20.3407C17.8338 20.674 18.272 20.9104 18.7519 21.0248C19.2318 21.1393 19.7352 21.1273 20.2085 20.9903C20.6818 20.8532 21.1071 20.5962 21.439 20.2468C21.7709 19.8973 21.997 19.4685 22.093 19.0061H25.4449C25.5857 19.0061 25.7208 18.9529 25.8203 18.858C25.9199 18.7631 25.9758 18.6345 25.9758 18.5003C25.9758 18.3661 25.9199 18.2375 25.8203 18.1426C25.7208 18.0477 25.5857 17.9944 25.4449 17.9944ZM19.4155 20.0898C19.0855 20.0898 18.7629 19.9966 18.4885 19.8219C18.2141 19.6472 18.0003 19.3989 17.874 19.1084C17.7477 18.8179 17.7147 18.4982 17.779 18.1898C17.8434 17.8814 18.0023 17.5982 18.2357 17.3758C18.469 17.1535 18.7663 17.002 19.09 16.9407C19.4137 16.8794 19.7491 16.9108 20.054 17.0312C20.3589 17.1515 20.6195 17.3553 20.8028 17.6167C20.9862 17.8782 21.084 18.1856 21.084 18.5C21.0835 18.9215 20.9076 19.3256 20.5948 19.6237C20.282 19.9217 19.8579 20.0894 19.4155 20.0898Z" fill="#95E1D3"/>
<path d="M37.975 2.58566L36.1175 0.816022C35.5714 0.296621 34.8314 0.00489722 34.0599 0.00489722C33.2883 0.00489722 32.5483 0.296621 32.0023 0.816022L30.5461 2.20352C30.4968 2.25045 30.4577 2.30619 30.431 2.36755C30.4043 2.4289 30.3905 2.49467 30.3905 2.56109C30.3905 2.62751 30.4043 2.69328 30.431 2.75464C30.4577 2.816 30.4968 2.87173 30.5461 2.91866L31.9234 4.2313L29.8815 6.17698C26.9226 3.88739 23.227 2.63766 19.4153 2.63766C15.6036 2.63766 11.908 3.88739 8.94912 6.17698L6.90685 4.23101L8.28414 2.91837C8.33347 2.87144 8.3726 2.81571 8.3993 2.75435C8.42601 2.693 8.43975 2.62723 8.43975 2.5608C8.43975 2.49438 8.42601 2.42861 8.3993 2.36726C8.3726 2.3059 8.33347 2.25016 8.28414 2.20323L6.82797 0.815733C6.28195 0.296331 5.54193 0.00460815 4.77039 0.00460815C3.99884 0.00460815 3.25882 0.296331 2.7128 0.815733L0.855583 2.58566C0.310478 3.10594 0.00431824 3.81106 0.00431824 4.54623C0.00431824 5.28139 0.310478 5.98652 0.855583 6.5068L2.31175 7.8943C2.361 7.9413 2.41949 7.97859 2.48389 8.00403C2.54828 8.02948 2.6173 8.04257 2.68701 8.04257C2.75672 8.04257 2.82574 8.02948 2.89014 8.00403C2.95453 7.97859 3.01302 7.9413 3.06228 7.8943L4.43987 6.58195L6.48213 8.52734C3.92745 11.5251 2.61168 15.3097 2.78278 19.1679C2.95388 23.0261 4.60005 26.6914 7.41105 29.4731L4.79541 35.0682C4.69767 35.2773 4.65631 35.5063 4.67512 35.7345C4.69393 35.9626 4.77229 36.1827 4.90309 36.3746C5.03389 36.5666 5.21297 36.7244 5.42406 36.8336C5.63514 36.9428 5.87153 37 6.11172 37H7.44017C7.71865 36.9998 7.99113 36.9228 8.22471 36.7783C8.45829 36.6339 8.64298 36.428 8.75648 36.1857L10.7086 32.0128C13.327 33.5491 16.3415 34.3626 19.4165 34.3626C22.4914 34.3626 25.506 33.5491 28.1243 32.0128L30.0753 36.186C30.1888 36.4281 30.3733 36.6337 30.6066 36.7782C30.84 36.9226 31.1122 36.9996 31.3904 37H32.7188C32.959 37 33.1954 36.9428 33.4065 36.8336C33.6176 36.7244 33.7967 36.5666 33.9275 36.3746C34.0583 36.1827 34.1366 35.9626 34.1554 35.7345C34.1743 35.5063 34.1329 35.2773 34.0352 35.0682L31.4195 29.4731C34.2305 26.6914 35.8767 23.0261 36.0478 19.1679C36.2189 15.3097 34.9031 11.5251 32.3484 8.52734L34.3907 6.58137L35.7683 7.89372C35.8175 7.94072 35.876 7.97801 35.9404 8.00346C36.0048 8.0289 36.0738 8.04199 36.1436 8.04199C36.2133 8.04199 36.2823 8.0289 36.3467 8.00346C36.4111 7.97801 36.4696 7.94072 36.5188 7.89372L37.975 6.50622C38.5199 5.98596 38.8259 5.28096 38.8259 4.54594C38.8259 3.81092 38.5199 3.10592 37.975 2.58566ZM2.68701 6.82187L1.60763 5.79166C1.26158 5.4611 1.06724 5.01327 1.06724 4.54637C1.06724 4.07948 1.26158 3.63165 1.60763 3.30109L3.46393 1.53203C3.81083 1.20238 4.28076 1.01727 4.77069 1.01727C5.26061 1.01727 5.73054 1.20238 6.07744 1.53203L7.15925 2.5608L2.68701 6.82187ZM5.1907 5.86797L6.15601 4.94817L8.14368 6.84182C7.80876 7.1357 7.48689 7.44239 7.17806 7.76191L5.1907 5.86797ZM7.78631 35.7744C7.75649 35.8381 7.70793 35.8923 7.6465 35.9303C7.58507 35.9683 7.51341 35.9885 7.44017 35.9886H6.11172C6.0485 35.9886 5.98627 35.9735 5.9307 35.9448C5.87514 35.9161 5.828 35.8745 5.79357 35.824C5.75914 35.7735 5.73852 35.7155 5.73357 35.6555C5.72863 35.5954 5.73953 35.5351 5.76528 35.4801L8.22104 30.2299C8.72499 30.6649 9.25626 31.0704 9.81189 31.4439L7.78631 35.7744ZM33.0371 35.8241C33.0029 35.8749 32.9558 35.9166 32.9002 35.9454C32.8445 35.9741 32.7821 35.989 32.7188 35.9886H31.3904C31.3172 35.9885 31.2455 35.9683 31.1841 35.9303C31.1226 35.8923 31.0741 35.8381 31.0443 35.7744L29.0199 31.4442C29.5755 31.0706 30.1068 30.6652 30.6107 30.2302L33.0668 35.4801C33.0927 35.5352 33.1035 35.5957 33.0982 35.6558C33.0929 35.716 33.0716 35.7739 33.0365 35.8241H33.0371ZM19.4153 33.3509C16.3327 33.3509 13.3193 32.48 10.7562 30.8482C8.19309 29.2164 6.19537 26.897 5.01567 24.1834C3.83597 21.4697 3.52728 18.4837 4.12863 15.6029C4.72998 12.7221 6.21435 10.0759 8.39405 7.99895C10.5738 5.92199 13.3509 4.50755 16.3742 3.9345C19.3976 3.36145 22.5314 3.65553 25.3793 4.77955C28.2273 5.90357 30.6615 7.80704 32.3741 10.2493C34.0867 12.6915 35.0008 15.5628 35.0008 18.5C34.9963 22.4373 33.3528 26.2122 30.4309 28.9963C27.5091 31.7805 23.5475 33.3465 19.4153 33.3509ZM31.6525 7.76017C31.3441 7.44105 31.0222 7.13435 30.6869 6.84009L32.6746 4.94644L33.6399 5.86623L31.6525 7.76017ZM37.2242 5.79166L36.1436 6.82187L31.6713 2.5608L32.7531 1.53203C33.1 1.20238 33.57 1.01727 34.0599 1.01727C34.5498 1.01727 35.0197 1.20238 35.3666 1.53203L37.2229 3.30109C37.569 3.63165 37.7633 4.07948 37.7633 4.54637C37.7633 5.01327 37.569 5.4611 37.2229 5.79166H37.2242Z" fill="#95E1D3"/>
</g>
<defs>
<clipPath id="clip0_4_10">
<rect width="38.831" height="37" fill="white"/>
</clipPath>
</defs>
</svg>
