<svg width="39" height="37" viewBox="0 0 39 37" fill="none" xmlns="http://www.w3.org/2000/svg">
<path d="M14.8836 15.4167V1.85C14.8836 0.801546 14.0601 0 12.9829 0H6.64727C5.57009 0 4.74658 0.801546 4.74658 1.85V15.4167C4.74658 16.4651 5.57009 17.2667 6.64727 17.2667H12.9829C14.0601 17.2667 14.8836 16.4651 14.8836 15.4167ZM13.6164 13.5667H6.01371V3.7H13.6164V13.5667ZM6.64727 1.23333H12.9829C13.3631 1.23333 13.6164 1.47994 13.6164 1.85V2.46667H6.01371V1.85C6.01371 1.47994 6.26707 1.23333 6.64727 1.23333ZM6.01371 15.4167V14.8H13.6164V15.4167C13.6164 15.7867 13.3631 16.0333 12.9829 16.0333H6.64727C6.26707 16.0333 6.01371 15.7867 6.01371 15.4167Z" fill="#95E1D3"/>
<path d="M12.7295 8.63334L7.91437 4.87161V12.3951L12.7295 8.63334ZM9.18149 7.46173L10.702 8.63334L9.18149 9.80495V7.46173Z" fill="#95E1D3"/>
<path d="M18.6849 10.4833C18.6849 6.41327 22.1061 3.08333 26.2876 3.08333C28.0615 3.08333 29.8357 3.7 31.2293 4.80988L29.8357 6.16667C27.3648 4.25494 23.8168 4.625 21.8527 7.02994C21.0292 8.01667 20.5856 9.25 20.5856 10.4833H21.8527C21.8527 8.07839 23.8168 6.16667 26.2876 6.16667C27.238 6.16667 28.1883 6.475 28.9487 7.02994L27.5548 8.38673C27.1746 8.14012 26.7313 8.01667 26.2876 8.01667C24.8937 8.01667 23.7534 9.12655 23.7534 10.4833H25.0205C25.0205 9.80494 25.5907 9.25 26.2876 9.25C26.4145 9.25 26.4776 9.25 26.6044 9.31173L25.844 10.0515L26.7313 10.9151L27.4914 10.175C27.4914 10.2985 27.5548 10.3599 27.5548 10.4833C27.5548 11.1617 26.9846 11.7167 26.2876 11.7167V12.95C27.6816 12.95 28.8219 11.8401 28.8219 10.4833C28.8219 10.0515 28.6951 9.62006 28.4417 9.25L29.8357 7.89321C31.2927 9.80494 30.9125 12.5182 28.9487 13.9367C28.1883 14.4917 27.238 14.8 26.2876 14.8V16.0333C29.4555 16.0333 31.9897 13.5667 31.9897 10.4833C31.9897 9.25 31.5461 8.01667 30.7226 7.02994L32.0531 5.73488C34.7773 8.81821 34.3971 13.5049 31.1662 16.1568C29.8357 17.2667 28.0615 17.8833 26.2876 17.8833V19.1167C31.1662 19.1167 35.1575 15.2932 35.1575 10.4833C35.1575 8.38673 34.3971 6.41327 33.0035 4.80988L34.1438 3.7H37.0582V2.46667H34.5239V0H33.2568V2.83673L32.1165 3.94661C28.3783 0.863273 22.8031 1.23333 19.5718 4.80988C18.1782 6.41327 17.4178 8.38673 17.4178 10.4833H18.6849Z" fill="#95E1D3"/>
<path d="M31.9897 22.8167H26.4145L14.3768 18.5H12.9828C11.9057 18.5 11.0822 19.3015 11.0822 20.35V32.6833C11.0822 33.7318 11.9057 34.5333 12.9828 34.5333H14.3768L26.4145 29.6H28.1883V35.15C28.1883 36.1985 29.0118 37 30.089 37C31.1662 37 31.9897 36.1985 31.9897 35.15V29.6C33.0669 29.6 33.8904 28.7985 33.8904 27.75V24.6667C33.8904 23.6182 33.0669 22.8167 31.9897 22.8167ZM14.8835 19.9799L25.6541 23.8651V28.5515L14.8835 32.9917V19.9799ZM12.3493 32.6833V20.35C12.3493 19.9799 12.6026 19.7333 12.9828 19.7333H13.6164V33.3H12.9828C12.6026 33.3 12.3493 33.0534 12.3493 32.6833ZM30.7226 35.15C30.7226 35.5201 30.4692 35.7667 30.089 35.7667C29.7088 35.7667 29.4554 35.5201 29.4554 35.15V29.6H30.7226V35.15ZM32.6232 27.75C32.6232 28.1201 32.3699 28.3667 31.9897 28.3667H26.9212V24.05H31.9897C32.3699 24.05 32.6232 24.2966 32.6232 24.6667V27.75Z" fill="#95E1D3"/>
<path d="M7.28082 25.2833H9.81507V26.5167H7.28082V25.2833Z" fill="#95E1D3"/>
<path d="M7.47571 20.7953L8.3716 19.923L10.2534 21.7547L9.35721 22.6267L7.47571 20.7953Z" fill="#95E1D3"/>
<path d="M7.47571 31.0047L9.35721 29.173L10.2531 30.0453L8.3716 31.8767L7.47571 31.0047Z" fill="#95E1D3"/>
<path d="M17.4178 11.7784V12.3951C17.4178 16.0951 20.5222 19.1167 24.3235 19.1167H25.0205V11.7167H18.0513L17.4178 11.7784ZM23.7534 12.95V17.8833C21.0923 17.6367 19.0017 15.5401 18.7483 12.95H23.7534Z" fill="#95E1D3"/>
<path d="M16.1507 1.85001H19.9521V3.08334H16.1507V1.85001Z" fill="#95E1D3"/>
<path d="M36.4247 12.95V24.6667C36.4247 25.0367 36.1713 25.2833 35.7911 25.2833H35.1575V26.5167H35.7911C36.8683 26.5167 37.6918 25.7151 37.6918 24.6667V12.95H36.4247Z" fill="#95E1D3"/>
<path d="M3.47946 24.6667V12.95H2.21234V24.6667C2.21234 25.7151 3.03585 26.5167 4.11303 26.5167H6.01371V25.2833H4.11303C3.73283 25.2833 3.47946 25.0367 3.47946 24.6667Z" fill="#95E1D3"/>
</svg>
