<svg width="39" height="37" viewBox="0 0 39 37" fill="none" xmlns="http://www.w3.org/2000/svg">
<path d="M35.6936 14.7661H29.0104V34.832H26.7844V19.4921H20.1012V34.832H17.8753V15.338H11.1921V34.832H9.00323V24.0232H2.3201V34.832H0V37H38.0137V34.832H35.6936V14.7661ZM6.77468 26.1912V28.3591H4.54873V26.1912H6.77468ZM4.54873 34.832V30.5271H6.77468V34.832H4.54873ZM15.6466 17.506V19.674H13.4207V17.506H15.6466ZM13.4207 34.832V21.8419H15.6466V34.832H13.4207ZM24.5558 21.6601V23.8281H22.3299V21.6601H24.5558ZM22.3299 34.832V25.996H24.5558V34.832H22.3299ZM33.465 16.9341V19.102H31.239V16.9341H33.465ZM31.239 34.832V21.27H33.465V34.832H31.239Z" fill="#95E1D3"/>
<path d="M31.3465 0V2.16797H34.2101L23.9471 12.1577L15.4449 3.88182L0.00750732 18.9081L1.58381 20.4406L15.4449 6.94877L23.9471 15.2246L35.7849 3.7021V6.49928H38.0135V0L31.3465 0Z" fill="#95E1D3"/>
</svg>
