<svg width="39" height="37" viewBox="0 0 39 37" fill="none" xmlns="http://www.w3.org/2000/svg">
<g clip-path="url(#clip0_6_24)">
<path d="M27.8471 10.2567C27.7091 10.1223 27.5176 10.045 27.3223 10.045C27.127 10.045 26.9355 10.1223 26.7974 10.2567C26.6593 10.3911 26.5798 10.5769 26.5798 10.7676C26.5798 10.9577 26.6592 11.1441 26.7974 11.2786C26.9355 11.413 27.127 11.4903 27.3223 11.4903C27.5176 11.4903 27.7091 11.413 27.8471 11.2786C27.9852 11.1441 28.0647 10.9577 28.0647 10.7676C28.0647 10.5776 27.9853 10.3911 27.8471 10.2567Z" fill="#95E1D3"/>
<path d="M11.1368 20.3789H5.19717C4.78718 20.3789 4.45471 20.7025 4.45471 21.1016V26.8828C4.45471 27.282 4.78718 27.6055 5.19717 27.6055H11.1368C11.5468 27.6055 11.8792 27.282 11.8792 26.8828V21.1016C11.8792 20.7025 11.5469 20.3789 11.1368 20.3789ZM10.3943 26.1602H5.93962V21.8242H10.3943V26.1602Z" fill="#95E1D3"/>
<path d="M37.5553 15.1586C37.2779 15.0466 36.9585 15.1086 36.7462 15.3152L29.1807 22.6789C29.1807 22.679 29.1805 22.6791 29.1804 22.6792C29.1802 22.6794 29.1801 22.6794 29.1801 22.6796L20.3609 31.2636C20.3608 31.2637 20.3607 31.2638 20.3605 31.2639C20.3604 31.2641 20.3603 31.2641 20.3602 31.2643L15.7348 35.7664C15.5225 35.973 15.4589 36.2839 15.5738 36.5539C15.6887 36.824 15.9594 37 16.2597 37H37.2712C37.6812 37 38.0136 36.6765 38.0136 36.2773V15.8262C38.0136 15.534 37.8328 15.2704 37.5553 15.1586ZM36.5287 35.5547H18.0523L20.8855 32.797L21.5943 33.4868C21.7393 33.6279 21.9293 33.6985 22.1193 33.6985C22.3093 33.6985 22.4993 33.6279 22.6443 33.4868C22.9342 33.2046 22.9342 32.747 22.6443 32.4648L21.9355 31.7749L23.8255 29.9353L24.5342 30.6251C24.6792 30.7662 24.8692 30.8368 25.0592 30.8368C25.2492 30.8368 25.4391 30.7662 25.5841 30.6251C25.8741 30.3429 25.8741 29.8853 25.5841 29.6031L24.8754 28.9133L26.7654 27.0737L27.4741 27.7635C27.6191 27.9047 27.8091 27.9752 27.9991 27.9752C28.1891 27.9752 28.3791 27.9047 28.5241 27.7635C28.814 27.4813 28.814 27.0237 28.5241 26.7415L27.8154 26.0516L29.7053 24.2121L30.414 24.902C30.559 25.0431 30.749 25.1136 30.939 25.1136C31.129 25.1136 31.319 25.0431 31.464 24.902C31.7539 24.6198 31.7539 24.1622 31.464 23.8799L30.7553 23.1901L32.6453 21.3505L33.3539 22.0402C33.4989 22.1814 33.6889 22.2519 33.8789 22.2519C34.0689 22.2519 34.2589 22.1813 34.4039 22.0402C34.6938 21.7581 34.6938 21.3005 34.4039 21.0183L33.6952 20.3284L36.5287 17.5708V35.5547Z" fill="#95E1D3"/>
<path d="M33.843 23.8818C33.5656 23.7698 33.2462 23.8318 33.0339 24.0384L24.697 32.1531C24.4847 32.3598 24.4211 32.6706 24.536 32.9406C24.6509 33.2107 24.9216 33.3867 25.222 33.3867H33.5589C33.9689 33.3867 34.3014 33.0632 34.3014 32.6641V24.5494C34.3014 24.2572 34.1205 23.9937 33.843 23.8818ZM32.8165 31.9414H27.0145L32.8165 26.2941V31.9414Z" fill="#95E1D3"/>
<path d="M34.3802 10.7866C34.1758 10.5878 33.8715 10.5223 33.5999 10.6191L28.5303 12.4261C28.429 12.4622 28.337 12.5194 28.2606 12.5936L26.8352 13.9811L17.5273 4.92136C17.388 4.78586 17.1992 4.7097 17.0023 4.7097C16.8054 4.7097 16.6166 4.78586 16.4773 4.92136L5.27349 15.8264H2.5351L17.0023 1.74493L24.9413 9.47221C25.2313 9.75441 25.7013 9.75441 25.9914 9.47221C26.2813 9.19001 26.2813 8.73243 25.9914 8.45016L17.5274 0.211892C17.2374 -0.0703051 16.7674 -0.0703051 16.4773 0.211892L0.217606 16.038C0.00533875 16.2447 -0.0582153 16.5555 0.0566423 16.8256C0.171574 17.0957 0.442273 17.2718 0.742595 17.2718H1.48505V36.2776C1.48505 36.6767 1.81752 37.0002 2.2275 37.0002H14.0315C14.4415 37.0002 14.7739 36.6767 14.7739 36.2776C14.7739 35.8785 14.4415 35.5549 14.0315 35.5549H2.96996V17.2718H5.58102C5.77792 17.2718 5.96672 17.1956 6.10601 17.0601L17.0023 6.45433L25.7851 15.003L14.775 25.7196V19.2229H19.9721C20.3821 19.2229 20.7146 18.8994 20.7146 18.5003C20.7146 18.1011 20.3821 17.7776 19.9721 17.7776H14.0325C13.6225 17.7776 13.2901 18.1011 13.2901 18.5003V26.8831C13.2901 26.9674 13.3057 27.0479 13.3329 27.1231L12.6677 27.7706C11.4924 28.9145 11.4924 30.7759 12.6677 31.9199C13.2555 32.492 14.0272 32.778 14.7992 32.7779C15.5711 32.7779 16.3432 32.4919 16.9308 31.92L23.192 25.8257C23.4819 25.5435 23.4819 25.0859 23.192 24.8037C22.9021 24.5215 22.4321 24.5215 22.142 24.8037L17.3983 29.4209L15.2353 27.3156L28.8004 14.1122L30.9634 16.2175L25.78 21.2628C25.4901 21.545 25.4901 22.0025 25.78 22.2847C26.07 22.5669 26.54 22.5669 26.83 22.2847L32.5236 16.743C32.5999 16.6687 32.6587 16.5791 32.6957 16.4805L34.5523 11.5462C34.6517 11.282 34.5846 10.9856 34.3802 10.7866ZM16.3484 30.4428L15.8808 30.8979C15.5919 31.1791 15.2079 31.334 14.7993 31.334C14.3907 31.334 14.0067 31.1791 13.7179 30.8979C13.4289 30.6167 13.2699 30.2429 13.2699 29.8453C13.2699 29.4477 13.4288 29.0738 13.7178 28.7926L14.1854 28.3375L16.3484 30.4428ZM31.7093 14.8993L30.1547 13.3862L32.6077 12.5118L31.7093 14.8993Z" fill="#95E1D3"/>
<path d="M24.9976 23.0455C24.8596 22.9111 24.668 22.8338 24.4728 22.8338C24.2775 22.8338 24.086 22.9111 23.9479 23.0455C23.8098 23.1807 23.7303 23.3664 23.7303 23.5565C23.7303 23.7472 23.8097 23.933 23.9479 24.0681C24.086 24.2025 24.2768 24.2791 24.4728 24.2791C24.668 24.2791 24.8596 24.2025 24.9976 24.0681C25.1357 23.933 25.2152 23.7465 25.2152 23.5565C25.2152 23.3664 25.1358 23.1807 24.9976 23.0455Z" fill="#95E1D3"/>
<path d="M17.0022 10.9122C15.4465 10.9122 14.1809 12.1441 14.1809 13.6582C14.1809 15.1724 15.4465 16.4043 17.0022 16.4043C18.5579 16.4043 19.8235 15.1724 19.8235 13.6582C19.8235 12.1441 18.5579 10.9122 17.0022 10.9122ZM17.0022 14.959C16.2653 14.959 15.6658 14.3756 15.6658 13.6582C15.6658 12.941 16.2653 12.3575 17.0022 12.3575C17.7391 12.3575 18.3386 12.941 18.3386 13.6582C18.3386 14.3755 17.7391 14.959 17.0022 14.959Z" fill="#95E1D3"/>
</g>
<defs>
<clipPath id="clip0_6_24">
<rect width="38.0137" height="37" fill="white"/>
</clipPath>
</defs>
</svg>
