<svg width="37" height="31" viewBox="0 0 37 31" fill="none" xmlns="http://www.w3.org/2000/svg">
<path d="M5.46524 23.524C5.329 23.524 5.19833 23.4713 5.102 23.3776C5.00566 23.2838 4.95154 23.1566 4.95154 23.024V4.6335C4.97462 3.4115 5.4915 2.24757 6.39017 1.39392C7.28883 0.540282 8.49689 0.0656955 9.75257 0.0730049H31.667C31.8032 0.0730049 31.9339 0.125683 32.0302 0.219452C32.1265 0.31322 32.1807 0.440397 32.1807 0.573005C32.1807 0.705613 32.1265 0.83279 32.0302 0.926558C31.9339 1.02033 31.8032 1.073 31.667 1.073H9.75257C8.76748 1.06675 7.81942 1.43804 7.1133 2.10662C6.40717 2.7752 5.9997 3.68738 5.97894 4.646V23.024C5.97894 23.1566 5.92481 23.2838 5.82848 23.3776C5.73214 23.4713 5.60148 23.524 5.46524 23.524Z" fill="#95E1D3"/>
<path d="M30.5866 9.42301H27.3802C27.2439 9.42301 27.1132 9.37033 27.0169 9.27656C26.9206 9.18279 26.8665 9.05562 26.8665 8.92301C26.8665 8.7904 26.9206 8.66322 27.0169 8.56945C27.1132 8.47569 27.2439 8.42301 27.3802 8.42301H29.476C29.2789 8.05658 29.1632 7.65383 29.1367 7.24099C29.1101 6.82816 29.1732 6.41451 29.3219 6.02701H27.3802C27.2439 6.02701 27.1132 5.97433 27.0169 5.88056C26.9206 5.78679 26.8665 5.65962 26.8665 5.52701C26.8665 5.3944 26.9206 5.26722 27.0169 5.17345C27.1132 5.07969 27.2439 5.02701 27.3802 5.02701H30.1346C30.2274 5.02699 30.3186 5.05147 30.3982 5.09784C30.4779 5.14421 30.5432 5.21073 30.5872 5.29033C30.6311 5.36993 30.6521 5.45964 30.6478 5.54992C30.6436 5.64019 30.6143 5.72765 30.563 5.80301C30.4531 5.96701 29.5218 7.45051 30.9082 8.53301C30.9912 8.59781 31.0515 8.6861 31.0807 8.78567C31.1099 8.88525 31.1067 8.9912 31.0714 9.08889C31.0361 9.18658 30.9705 9.2712 30.8836 9.33105C30.7968 9.3909 30.693 9.42303 30.5866 9.42301Z" fill="#95E1D3"/>
<path d="M27.3802 27.32C27.2439 27.32 27.1133 27.2673 27.0169 27.1736C26.9206 27.0798 26.8665 26.9526 26.8665 26.82V4.6335C26.8665 4.50089 26.9206 4.37371 27.0169 4.27995C27.1133 4.18618 27.2439 4.1335 27.3802 4.1335C27.5164 4.1335 27.6471 4.18618 27.7434 4.27995C27.8397 4.37371 27.8939 4.50089 27.8939 4.6335V26.82C27.8939 26.9526 27.8397 27.0798 27.7434 27.1736C27.6471 27.2673 27.5164 27.32 27.3802 27.32Z" fill="#95E1D3"/>
<path d="M4.41473 30.927C3.57008 30.9269 2.75256 30.6367 2.10617 30.1075C2.00343 30.0215 1.90428 29.9355 1.8113 29.845C1.23391 29.2841 0.82667 28.579 0.634384 27.8073C0.442097 27.0357 0.472216 26.2273 0.721428 25.4713C0.970639 24.7152 1.42929 24.0407 2.04691 23.5219C2.66453 23.0032 3.41719 22.6603 4.22209 22.531C4.24958 22.5264 4.27742 22.5241 4.30531 22.524H23.9019C24.031 22.5238 24.1555 22.571 24.2505 22.6561C24.3455 22.7413 24.4041 22.8581 24.4146 22.9834C24.4251 23.1086 24.3867 23.2332 24.3071 23.3321C24.2275 23.4311 24.1126 23.4973 23.9851 23.5175C23.3672 23.6174 22.7894 23.8812 22.3155 24.2799C21.8415 24.6785 21.4896 25.1967 21.2985 25.7773C21.1074 26.358 21.0844 26.9787 21.2321 27.5712C21.3799 28.1637 21.6925 28.7052 22.1358 29.136C22.2082 29.207 22.2837 29.2735 22.3613 29.336C22.8041 29.6992 23.3596 29.9067 23.9384 29.925H24.001H24.0339C24.4358 29.9199 24.8318 29.8298 25.1944 29.661C25.6931 29.4395 26.1159 29.0831 26.4124 28.6343C26.7088 28.1854 26.8665 27.6631 26.8665 27.1295C26.8665 26.9969 26.9206 26.8697 27.0169 26.7759C27.1133 26.6822 27.2439 26.6295 27.3802 26.6295C27.5164 26.6295 27.6471 26.6822 27.7434 26.7759C27.8397 26.8697 27.8939 26.9969 27.8939 27.1295C27.8953 27.8531 27.683 28.5618 27.2823 29.1713C26.8815 29.7808 26.3092 30.2652 25.6336 30.567C25.1419 30.7938 24.6057 30.9147 24.0617 30.9215C24.0422 30.9237 24.0227 30.9249 24.0031 30.925H4.46302C4.44709 30.9265 4.43117 30.927 4.41473 30.927ZM4.34846 23.524C3.7349 23.6306 3.16311 23.8989 2.6953 24.2998C2.22748 24.7006 1.88155 25.2187 1.69511 25.7975C1.50868 26.3764 1.48889 26.9939 1.6379 27.583C1.78691 28.1721 2.099 28.7101 2.54024 29.1385C2.61319 29.2095 2.69127 29.2775 2.76884 29.3415C3.21838 29.7089 3.78365 29.9154 4.37055 29.9265H4.41473H21.4942C21.4654 29.8995 21.4367 29.8725 21.4084 29.845C20.5775 29.0352 20.1106 27.9376 20.11 26.7931C20.1094 25.6486 20.5753 24.5506 21.4053 23.74C21.4819 23.6655 21.5594 23.594 21.6416 23.5255L4.34846 23.524Z" fill="#95E1D3"/>
<path d="M31.667 9.423H30.7192C30.583 9.423 30.4523 9.37032 30.356 9.27655C30.2596 9.18279 30.2055 9.05561 30.2055 8.923C30.2055 8.79039 30.2596 8.66321 30.356 8.56945C30.4523 8.47568 30.583 8.423 30.7192 8.423H31.666C32.4083 8.42341 33.1344 8.21079 33.7533 7.81173C34.3722 7.41266 34.8565 6.84486 35.1456 6.17933C35.4348 5.5138 35.5159 4.78007 35.3789 4.06988C35.242 3.3597 34.8929 2.70458 34.3755 2.18645C33.858 1.66831 33.1951 1.31016 32.4696 1.15676C31.7441 1.00337 30.9883 1.06154 30.2966 1.32401C29.6049 1.58648 29.0081 2.0416 28.5807 2.63246C28.1534 3.22332 27.9145 3.92369 27.8939 4.646C27.8932 4.71191 27.8789 4.77701 27.8519 4.83745C27.8249 4.8979 27.7857 4.95246 27.7366 4.99791C27.6876 5.04336 27.6297 5.07878 27.5663 5.10207C27.503 5.12536 27.4355 5.13604 27.3678 5.1335C27.3004 5.13188 27.2339 5.11733 27.1722 5.0907C27.1105 5.06406 27.0548 5.02585 27.0083 4.97826C26.9618 4.93067 26.9254 4.87462 26.9011 4.81332C26.8769 4.75202 26.8653 4.68667 26.867 4.621C26.892 3.7017 27.195 2.81 27.7381 2.05745C28.2811 1.3049 29.0401 0.724907 29.92 0.390035C30.8 0.0551639 31.7619 -0.0197215 32.6853 0.174747C33.6088 0.369216 34.4528 0.824405 35.1118 1.48337C35.7709 2.14234 36.2156 2.97582 36.3905 3.87956C36.5654 4.78329 36.4626 5.71715 36.095 6.56431C35.7274 7.41148 35.1113 8.13433 34.3238 8.64244C33.5363 9.15055 32.6123 9.42136 31.6675 9.421L31.667 9.423Z" fill="#95E1D3"/>
<path d="M24.4192 5.4165H8.97021C8.83397 5.4165 8.70331 5.36383 8.60697 5.27006C8.51063 5.17629 8.45651 5.04911 8.45651 4.9165C8.45651 4.7839 8.51063 4.65672 8.60697 4.56295C8.70331 4.46918 8.83397 4.4165 8.97021 4.4165H24.4192C24.5554 4.4165 24.6861 4.46918 24.7824 4.56295C24.8788 4.65672 24.9329 4.7839 24.9329 4.9165C24.9329 5.04911 24.8788 5.17629 24.7824 5.27006C24.6861 5.36383 24.5554 5.4165 24.4192 5.4165Z" fill="#95E1D3"/>
<path d="M24.4192 9.9295H20.2911C20.1549 9.9295 20.0242 9.87683 19.9279 9.78306C19.8315 9.68929 19.7774 9.56211 19.7774 9.4295C19.7774 9.2969 19.8315 9.16972 19.9279 9.07595C20.0242 8.98218 20.1549 8.9295 20.2911 8.9295H24.4192C24.5554 8.9295 24.6861 8.98218 24.7824 9.07595C24.8788 9.16972 24.9329 9.2969 24.9329 9.4295C24.9329 9.56211 24.8788 9.68929 24.7824 9.78306C24.6861 9.87683 24.5554 9.9295 24.4192 9.9295Z" fill="#95E1D3"/>
<path d="M10.1456 9.9295H8.97021C8.83397 9.9295 8.70331 9.87683 8.60697 9.78306C8.51063 9.68929 8.45651 9.56211 8.45651 9.4295C8.45651 9.2969 8.51063 9.16972 8.60697 9.07595C8.70331 8.98218 8.83397 8.9295 8.97021 8.9295H10.1456C10.2818 8.9295 10.4125 8.98218 10.5088 9.07595C10.6051 9.16972 10.6593 9.2969 10.6593 9.4295C10.6593 9.56211 10.6051 9.68929 10.5088 9.78306C10.4125 9.87683 10.2818 9.9295 10.1456 9.9295Z" fill="#95E1D3"/>
<path d="M24.4192 14.442H20.5053C20.3691 14.442 20.2384 14.3893 20.1421 14.2956C20.0457 14.2018 19.9916 14.0746 19.9916 13.942C19.9916 13.8094 20.0457 13.6822 20.1421 13.5884C20.2384 13.4947 20.3691 13.442 20.5053 13.442H24.4192C24.5554 13.442 24.6861 13.4947 24.7824 13.5884C24.8788 13.6822 24.9329 13.8094 24.9329 13.942C24.9329 14.0746 24.8788 14.2018 24.7824 14.2956C24.6861 14.3893 24.5554 14.442 24.4192 14.442Z" fill="#95E1D3"/>
<path d="M9.55789 14.442H8.97021C8.83397 14.442 8.70331 14.3893 8.60697 14.2956C8.51063 14.2018 8.45651 14.0746 8.45651 13.942C8.45651 13.8094 8.51063 13.6822 8.60697 13.5884C8.70331 13.4947 8.83397 13.442 8.97021 13.442H9.55789C9.69413 13.442 9.82479 13.4947 9.92113 13.5884C10.0175 13.6822 10.0716 13.8094 10.0716 13.942C10.0716 14.0746 10.0175 14.2018 9.92113 14.2956C9.82479 14.3893 9.69413 14.442 9.55789 14.442Z" fill="#95E1D3"/>
<path d="M24.4192 18.955H23.8654C23.7292 18.955 23.5985 18.9023 23.5022 18.8086C23.4059 18.7148 23.3517 18.5876 23.3517 18.455C23.3517 18.3224 23.4059 18.1952 23.5022 18.1014C23.5985 18.0077 23.7292 17.955 23.8654 17.955H24.4192C24.5554 17.955 24.6861 18.0077 24.7824 18.1014C24.8788 18.1952 24.9329 18.3224 24.9329 18.455C24.9329 18.5876 24.8788 18.7148 24.7824 18.8086C24.6861 18.9023 24.5554 18.955 24.4192 18.955Z" fill="#95E1D3"/>
<path d="M15.9031 18.955H8.96814C8.83189 18.955 8.70123 18.9023 8.6049 18.8086C8.50856 18.7148 8.45444 18.5876 8.45444 18.455C8.45444 18.3224 8.50856 18.1952 8.6049 18.1014C8.70123 18.0077 8.83189 17.955 8.96814 17.955H15.9031C16.0393 17.955 16.17 18.0077 16.2663 18.1014C16.3626 18.1952 16.4168 18.3224 16.4168 18.455C16.4168 18.5876 16.3626 18.7148 16.2663 18.8086C16.17 18.9023 16.0393 18.955 15.9031 18.955Z" fill="#95E1D3"/>
<path d="M14.8695 16.95C14.1676 16.95 13.4765 16.7815 12.8575 16.4595C12.2385 16.1374 11.7106 15.6717 11.3207 15.1037C10.9308 14.5356 10.6908 13.8827 10.6221 13.2028C10.5533 12.5229 10.6579 11.837 10.9266 11.2059C11.1953 10.5747 11.6198 10.0178 12.1624 9.58449C12.7051 9.15116 13.3492 8.8548 14.0376 8.72165C14.726 8.58851 15.4376 8.62268 16.1092 8.82116C16.7809 9.01963 17.3918 9.37628 17.888 9.8595C18.4851 10.4403 18.8918 11.1805 19.0566 11.9864C19.2213 12.7923 19.1368 13.6277 18.8136 14.3868C18.4905 15.1459 17.9432 15.7946 17.2412 16.2509C16.5391 16.7071 15.7137 16.9504 14.8695 16.95ZM14.8695 9.6425C14.1196 9.64253 13.3929 9.89566 12.8132 10.3587C12.2335 10.8218 11.8368 11.4662 11.6905 12.1821C11.5442 12.898 11.6575 13.6412 12.0111 14.2849C12.3646 14.9286 12.9365 15.4331 13.6294 15.7124C14.3222 15.9917 15.0931 16.0285 15.8107 15.8166C16.5284 15.6047 17.1483 15.1571 17.5649 14.5502C17.9815 13.9433 18.169 13.2145 18.0955 12.4881C18.022 11.7617 17.6919 11.0826 17.1616 10.5665C16.8615 10.2724 16.5043 10.0391 16.1108 9.88023C15.7174 9.72136 15.2955 9.64005 14.8695 9.641V9.6425Z" fill="#95E1D3"/>
<path d="M13.8611 13.295C13.5245 13.2951 13.1982 13.1816 12.938 12.9738C12.6777 12.766 12.4995 12.4767 12.4338 12.1554C12.3681 11.834 12.4189 11.5004 12.5776 11.2114C12.7363 10.9225 12.9931 10.696 13.3041 10.5707C13.6152 10.4453 13.9612 10.4289 14.2834 10.5241C14.6055 10.6193 14.8837 10.8203 15.0706 11.0929C15.2575 11.3654 15.3415 11.6926 15.3083 12.0186C15.2751 12.3447 15.1268 12.6495 14.8885 12.881C14.7536 13.0123 14.5935 13.1165 14.4172 13.1875C14.2409 13.2585 14.0519 13.2951 13.8611 13.295ZM13.8611 11.4625C13.762 11.4624 13.6659 11.4959 13.5893 11.557C13.5126 11.6182 13.4601 11.7034 13.4407 11.798C13.4214 11.8927 13.4363 11.9909 13.483 12.076C13.5298 12.1611 13.6054 12.2278 13.6969 12.2647C13.7885 12.3017 13.8904 12.3065 13.9853 12.2785C14.0802 12.2505 14.1621 12.1913 14.2172 12.1111C14.2722 12.0309 14.297 11.9345 14.2873 11.8385C14.2775 11.7425 14.2338 11.6527 14.1637 11.5845C14.1241 11.5457 14.0769 11.515 14.025 11.494C13.973 11.4731 13.9174 11.4624 13.8611 11.4625Z" fill="#95E1D3"/>
<path d="M20.4996 20.503C20.3634 20.503 20.2328 20.4503 20.1365 20.3565L16.1368 16.4635C16.0877 16.4174 16.0486 16.3622 16.0217 16.3012C15.9948 16.2402 15.9806 16.1746 15.98 16.1082C15.9794 16.0418 15.9924 15.976 16.0182 15.9145C16.0441 15.8531 16.0822 15.7973 16.1304 15.7503C16.1787 15.7034 16.236 15.6662 16.2992 15.6411C16.3623 15.6159 16.4299 15.6033 16.4981 15.6039C16.5663 15.6045 16.6337 15.6182 16.6964 15.6445C16.7591 15.6707 16.8158 15.7087 16.8632 15.7565L20.702 19.491L21.6924 19.436L21.75 18.4705L21.6668 18.3895L20.8263 18.2965C20.7108 18.2838 20.6032 18.2332 20.521 18.1532C20.4388 18.0732 20.3869 17.9684 20.3738 17.856L20.3039 17.2605L19.6931 17.193C19.5775 17.1804 19.4697 17.1299 19.3874 17.0499C19.3051 16.9699 19.2532 16.865 19.24 16.7525L19.1445 15.9345L17.9116 14.7345C17.8181 14.6402 17.7663 14.5139 17.7674 14.3828C17.7686 14.2517 17.8226 14.1263 17.9179 14.0336C18.0131 13.9409 18.142 13.8883 18.2767 13.8872C18.4113 13.886 18.5411 13.9364 18.638 14.0275L19.9957 15.35C20.078 15.4298 20.1299 15.5346 20.1426 15.647L20.2125 16.243L20.8238 16.31C20.9393 16.3227 21.047 16.3733 21.1292 16.4533C21.2114 16.5333 21.2633 16.6381 21.2763 16.7505L21.3462 17.347L21.9596 17.415C22.075 17.4277 22.1825 17.4781 22.2647 17.558L22.6377 17.9215C22.6889 17.9714 22.7287 18.0313 22.7544 18.0972C22.7802 18.1631 22.7913 18.2336 22.7871 18.304L22.6895 19.9375C22.6822 20.0599 22.6289 20.1754 22.5398 20.2621C22.4506 20.3487 22.3319 20.4005 22.2061 20.4075L20.5289 20.5015L20.4996 20.503Z" fill="#95E1D3"/>
</svg>
