<svg width="39" height="37" viewBox="0 0 39 37" fill="none" xmlns="http://www.w3.org/2000/svg">
<path d="M5.46524 26.524C5.329 26.524 5.19833 26.4713 5.102 26.3776C5.00566 26.2838 4.95154 26.1566 4.95154 26.024V7.6335C4.97462 6.4115 5.4915 5.24757 6.39017 4.39392C7.28883 3.54028 8.49689 3.0657 9.75257 3.073H31.667C31.8032 3.073 31.9339 3.12568 32.0302 3.21945C32.1265 3.31322 32.1807 3.4404 32.1807 3.573C32.1807 3.70561 32.1265 3.83279 32.0302 3.92656C31.9339 4.02033 31.8032 4.073 31.667 4.073H9.75257C8.76748 4.06675 7.81942 4.43804 7.1133 5.10662C6.40717 5.7752 5.9997 6.68738 5.97894 7.646V26.024C5.97894 26.1566 5.92481 26.2838 5.82848 26.3776C5.73214 26.4713 5.60148 26.524 5.46524 26.524Z" fill="#95E1D3"/>
<path d="M30.5866 12.423H27.3802C27.2439 12.423 27.1132 12.3703 27.0169 12.2766C26.9206 12.1828 26.8665 12.0556 26.8665 11.923C26.8665 11.7904 26.9206 11.6632 27.0169 11.5695C27.1132 11.4757 27.2439 11.423 27.3802 11.423H29.476C29.2789 11.0566 29.1632 10.6538 29.1367 10.241C29.1101 9.82816 29.1732 9.41451 29.3219 9.02701H27.3802C27.2439 9.02701 27.1132 8.97433 27.0169 8.88056C26.9206 8.78679 26.8665 8.65962 26.8665 8.52701C26.8665 8.3944 26.9206 8.26722 27.0169 8.17345C27.1132 8.07969 27.2439 8.02701 27.3802 8.02701H30.1346C30.2274 8.02699 30.3186 8.05147 30.3982 8.09784C30.4779 8.14421 30.5432 8.21073 30.5872 8.29033C30.6311 8.36993 30.6521 8.45964 30.6478 8.54992C30.6436 8.64019 30.6143 8.72765 30.563 8.80301C30.4531 8.96701 29.5218 10.4505 30.9082 11.533C30.9912 11.5978 31.0515 11.6861 31.0807 11.7857C31.1099 11.8852 31.1067 11.9912 31.0714 12.0889C31.0361 12.1866 30.9705 12.2712 30.8836 12.331C30.7968 12.3909 30.693 12.423 30.5866 12.423Z" fill="#95E1D3"/>
<path d="M27.3802 30.32C27.2439 30.32 27.1133 30.2673 27.0169 30.1736C26.9206 30.0798 26.8665 29.9526 26.8665 29.82V7.6335C26.8665 7.50089 26.9206 7.37371 27.0169 7.27995C27.1133 7.18618 27.2439 7.1335 27.3802 7.1335C27.5164 7.1335 27.6471 7.18618 27.7434 7.27995C27.8397 7.37371 27.8939 7.50089 27.8939 7.6335V29.82C27.8939 29.9526 27.8397 30.0798 27.7434 30.1736C27.6471 30.2673 27.5164 30.32 27.3802 30.32Z" fill="#95E1D3"/>
<path d="M4.41473 33.927C3.57008 33.9269 2.75256 33.6367 2.10617 33.1075C2.00343 33.0215 1.90428 32.9355 1.8113 32.845C1.23391 32.2841 0.82667 31.579 0.634384 30.8073C0.442097 30.0357 0.472216 29.2273 0.721428 28.4713C0.970639 27.7152 1.42929 27.0407 2.04691 26.5219C2.66453 26.0032 3.41719 25.6603 4.22209 25.531C4.24958 25.5264 4.27742 25.5241 4.30531 25.524H23.9019C24.031 25.5238 24.1555 25.571 24.2505 25.6561C24.3455 25.7413 24.4041 25.8581 24.4146 25.9834C24.4251 26.1086 24.3867 26.2332 24.3071 26.3321C24.2275 26.4311 24.1126 26.4973 23.9851 26.5175C23.3672 26.6174 22.7894 26.8812 22.3155 27.2799C21.8415 27.6785 21.4896 28.1967 21.2985 28.7773C21.1074 29.358 21.0844 29.9787 21.2321 30.5712C21.3799 31.1637 21.6925 31.7052 22.1358 32.136C22.2082 32.207 22.2837 32.2735 22.3613 32.336C22.8041 32.6992 23.3596 32.9067 23.9384 32.925H24.001H24.0339C24.4358 32.9199 24.8318 32.8298 25.1944 32.661C25.6931 32.4395 26.1159 32.0831 26.4124 31.6343C26.7088 31.1854 26.8665 30.6631 26.8665 30.1295C26.8665 29.9969 26.9206 29.8697 27.0169 29.7759C27.1133 29.6822 27.2439 29.6295 27.3802 29.6295C27.5164 29.6295 27.6471 29.6822 27.7434 29.7759C27.8397 29.8697 27.8939 29.9969 27.8939 30.1295C27.8953 30.8531 27.683 31.5618 27.2823 32.1713C26.8815 32.7808 26.3092 33.2652 25.6336 33.567C25.1419 33.7938 24.6057 33.9147 24.0617 33.9215C24.0422 33.9237 24.0227 33.9249 24.0031 33.925H4.46302C4.44709 33.9265 4.43117 33.927 4.41473 33.927ZM4.34846 26.524C3.7349 26.6306 3.16311 26.8989 2.6953 27.2998C2.22748 27.7006 1.88155 28.2187 1.69511 28.7975C1.50868 29.3764 1.48889 29.9939 1.6379 30.583C1.78691 31.1721 2.099 31.7101 2.54024 32.1385C2.61319 32.2095 2.69127 32.2775 2.76884 32.3415C3.21838 32.7089 3.78365 32.9154 4.37055 32.9265H4.41473H21.4942C21.4654 32.8995 21.4367 32.8725 21.4084 32.845C20.5775 32.0352 20.1106 30.9376 20.11 29.7931C20.1094 28.6486 20.5753 27.5506 21.4053 26.74C21.4819 26.6655 21.5594 26.594 21.6416 26.5255L4.34846 26.524Z" fill="#95E1D3"/>
<path d="M31.667 12.423H30.7192C30.583 12.423 30.4523 12.3703 30.356 12.2766C30.2596 12.1828 30.2055 12.0556 30.2055 11.923C30.2055 11.7904 30.2596 11.6632 30.356 11.5694C30.4523 11.4757 30.583 11.423 30.7192 11.423H31.666C32.4083 11.4234 33.1344 11.2108 33.7533 10.8117C34.3722 10.4127 34.8565 9.84486 35.1456 9.17933C35.4348 8.5138 35.5159 7.78007 35.3789 7.06988C35.242 6.3597 34.8929 5.70458 34.3755 5.18645C33.858 4.66831 33.1951 4.31016 32.4696 4.15676C31.7441 4.00337 30.9883 4.06154 30.2966 4.32401C29.6049 4.58648 29.0081 5.0416 28.5807 5.63246C28.1534 6.22332 27.9145 6.92369 27.8939 7.646C27.8932 7.71191 27.8789 7.77701 27.8519 7.83745C27.8249 7.8979 27.7857 7.95246 27.7366 7.99791C27.6876 8.04336 27.6297 8.07878 27.5663 8.10207C27.503 8.12536 27.4355 8.13604 27.3678 8.1335C27.3004 8.13188 27.2339 8.11733 27.1722 8.0907C27.1105 8.06406 27.0548 8.02585 27.0083 7.97826C26.9618 7.93067 26.9254 7.87462 26.9011 7.81332C26.8769 7.75202 26.8653 7.68667 26.867 7.621C26.892 6.7017 27.195 5.81 27.7381 5.05745C28.2811 4.3049 29.0401 3.72491 29.92 3.39004C30.8 3.05516 31.7619 2.98028 32.6853 3.17475C33.6088 3.36922 34.4528 3.82441 35.1118 4.48337C35.7709 5.14234 36.2156 5.97582 36.3905 6.87956C36.5654 7.78329 36.4626 8.71715 36.095 9.56431C35.7274 10.4115 35.1113 11.1343 34.3238 11.6424C33.5363 12.1506 32.6123 12.4214 31.6675 12.421L31.667 12.423Z" fill="#95E1D3"/>
<path d="M24.4192 8.4165H8.97021C8.83397 8.4165 8.70331 8.36383 8.60697 8.27006C8.51063 8.17629 8.45651 8.04911 8.45651 7.9165C8.45651 7.7839 8.51063 7.65672 8.60697 7.56295C8.70331 7.46918 8.83397 7.4165 8.97021 7.4165H24.4192C24.5554 7.4165 24.6861 7.46918 24.7824 7.56295C24.8788 7.65672 24.9329 7.7839 24.9329 7.9165C24.9329 8.04911 24.8788 8.17629 24.7824 8.27006C24.6861 8.36383 24.5554 8.4165 24.4192 8.4165Z" fill="#95E1D3"/>
<path d="M24.4192 12.9295H20.2911C20.1549 12.9295 20.0242 12.8768 19.9279 12.7831C19.8315 12.6893 19.7774 12.5621 19.7774 12.4295C19.7774 12.2969 19.8315 12.1697 19.9279 12.076C20.0242 11.9822 20.1549 11.9295 20.2911 11.9295H24.4192C24.5554 11.9295 24.6861 11.9822 24.7824 12.076C24.8788 12.1697 24.9329 12.2969 24.9329 12.4295C24.9329 12.5621 24.8788 12.6893 24.7824 12.7831C24.6861 12.8768 24.5554 12.9295 24.4192 12.9295Z" fill="#95E1D3"/>
<path d="M10.1456 12.9295H8.97021C8.83397 12.9295 8.70331 12.8768 8.60697 12.7831C8.51063 12.6893 8.45651 12.5621 8.45651 12.4295C8.45651 12.2969 8.51063 12.1697 8.60697 12.076C8.70331 11.9822 8.83397 11.9295 8.97021 11.9295H10.1456C10.2818 11.9295 10.4125 11.9822 10.5088 12.076C10.6051 12.1697 10.6593 12.2969 10.6593 12.4295C10.6593 12.5621 10.6051 12.6893 10.5088 12.7831C10.4125 12.8768 10.2818 12.9295 10.1456 12.9295Z" fill="#95E1D3"/>
<path d="M24.4192 17.442H20.5053C20.3691 17.442 20.2384 17.3893 20.1421 17.2956C20.0457 17.2018 19.9916 17.0746 19.9916 16.942C19.9916 16.8094 20.0457 16.6822 20.1421 16.5884C20.2384 16.4947 20.3691 16.442 20.5053 16.442H24.4192C24.5554 16.442 24.6861 16.4947 24.7824 16.5884C24.8788 16.6822 24.9329 16.8094 24.9329 16.942C24.9329 17.0746 24.8788 17.2018 24.7824 17.2956C24.6861 17.3893 24.5554 17.442 24.4192 17.442Z" fill="#95E1D3"/>
<path d="M9.55789 17.442H8.97021C8.83397 17.442 8.70331 17.3893 8.60697 17.2956C8.51063 17.2018 8.45651 17.0746 8.45651 16.942C8.45651 16.8094 8.51063 16.6822 8.60697 16.5884C8.70331 16.4947 8.83397 16.442 8.97021 16.442H9.55789C9.69413 16.442 9.82479 16.4947 9.92113 16.5884C10.0175 16.6822 10.0716 16.8094 10.0716 16.942C10.0716 17.0746 10.0175 17.2018 9.92113 17.2956C9.82479 17.3893 9.69413 17.442 9.55789 17.442Z" fill="#95E1D3"/>
<path d="M24.4192 21.955H23.8654C23.7292 21.955 23.5985 21.9023 23.5022 21.8086C23.4059 21.7148 23.3517 21.5876 23.3517 21.455C23.3517 21.3224 23.4059 21.1952 23.5022 21.1014C23.5985 21.0077 23.7292 20.955 23.8654 20.955H24.4192C24.5554 20.955 24.6861 21.0077 24.7824 21.1014C24.8788 21.1952 24.9329 21.3224 24.9329 21.455C24.9329 21.5876 24.8788 21.7148 24.7824 21.8086C24.6861 21.9023 24.5554 21.955 24.4192 21.955Z" fill="#95E1D3"/>
<path d="M15.9031 21.955H8.96814C8.83189 21.955 8.70123 21.9023 8.6049 21.8086C8.50856 21.7148 8.45444 21.5876 8.45444 21.455C8.45444 21.3224 8.50856 21.1952 8.6049 21.1014C8.70123 21.0077 8.83189 20.955 8.96814 20.955H15.9031C16.0393 20.955 16.17 21.0077 16.2663 21.1014C16.3626 21.1952 16.4168 21.3224 16.4168 21.455C16.4168 21.5876 16.3626 21.7148 16.2663 21.8086C16.17 21.9023 16.0393 21.955 15.9031 21.955Z" fill="#95E1D3"/>
<path d="M14.8695 19.95C14.1676 19.95 13.4765 19.7815 12.8575 19.4595C12.2385 19.1374 11.7106 18.6717 11.3207 18.1037C10.9308 17.5356 10.6908 16.8827 10.6221 16.2028C10.5533 15.5229 10.6579 14.837 10.9266 14.2059C11.1953 13.5747 11.6198 13.0178 12.1624 12.5845C12.7051 12.1512 13.3492 11.8548 14.0376 11.7217C14.726 11.5885 15.4376 11.6227 16.1092 11.8212C16.7809 12.0196 17.3918 12.3763 17.888 12.8595C18.4851 13.4403 18.8918 14.1805 19.0566 14.9864C19.2213 15.7923 19.1368 16.6277 18.8136 17.3868C18.4905 18.1459 17.9432 18.7946 17.2412 19.2509C16.5391 19.7071 15.7137 19.9504 14.8695 19.95ZM14.8695 12.6425C14.1196 12.6425 13.3929 12.8957 12.8132 13.3587C12.2335 13.8218 11.8368 14.4662 11.6905 15.1821C11.5442 15.898 11.6575 16.6412 12.0111 17.2849C12.3646 17.9286 12.9365 18.4331 13.6294 18.7124C14.3222 18.9917 15.0931 19.0285 15.8107 18.8166C16.5284 18.6047 17.1483 18.1571 17.5649 17.5502C17.9815 16.9433 18.169 16.2145 18.0955 15.4881C18.022 14.7617 17.6919 14.0826 17.1616 13.5665C16.8615 13.2724 16.5043 13.0391 16.1108 12.8802C15.7174 12.7214 15.2955 12.6401 14.8695 12.641V12.6425Z" fill="#95E1D3"/>
<path d="M13.8611 16.295C13.5245 16.2951 13.1982 16.1816 12.938 15.9738C12.6777 15.766 12.4995 15.4767 12.4338 15.1554C12.3681 14.834 12.4189 14.5004 12.5776 14.2114C12.7363 13.9225 12.9931 13.696 13.3041 13.5707C13.6152 13.4453 13.9612 13.4289 14.2834 13.5241C14.6055 13.6193 14.8837 13.8203 15.0706 14.0929C15.2575 14.3654 15.3415 14.6926 15.3083 15.0186C15.2751 15.3447 15.1268 15.6495 14.8885 15.881C14.7536 16.0123 14.5935 16.1165 14.4172 16.1875C14.2409 16.2585 14.0519 16.2951 13.8611 16.295ZM13.8611 14.4625C13.762 14.4624 13.6659 14.4959 13.5893 14.557C13.5126 14.6182 13.4601 14.7034 13.4407 14.798C13.4214 14.8927 13.4363 14.9909 13.483 15.076C13.5298 15.1611 13.6054 15.2278 13.6969 15.2647C13.7885 15.3017 13.8904 15.3065 13.9853 15.2785C14.0802 15.2505 14.1621 15.1913 14.2172 15.1111C14.2722 15.0309 14.297 14.9345 14.2873 14.8385C14.2775 14.7425 14.2338 14.6527 14.1637 14.5845C14.1241 14.5457 14.0769 14.515 14.025 14.494C13.973 14.4731 13.9174 14.4624 13.8611 14.4625Z" fill="#95E1D3"/>
<path d="M20.4996 23.503C20.3634 23.503 20.2328 23.4503 20.1365 23.3565L16.1368 19.4635C16.0877 19.4174 16.0486 19.3622 16.0217 19.3012C15.9948 19.2402 15.9806 19.1746 15.98 19.1082C15.9794 19.0418 15.9924 18.976 16.0182 18.9145C16.0441 18.8531 16.0822 18.7973 16.1304 18.7503C16.1787 18.7034 16.236 18.6662 16.2992 18.6411C16.3623 18.6159 16.4299 18.6033 16.4981 18.6039C16.5663 18.6045 16.6337 18.6182 16.6964 18.6445C16.7591 18.6707 16.8158 18.7087 16.8632 18.7565L20.702 22.491L21.6924 22.436L21.75 21.4705L21.6668 21.3895L20.8263 21.2965C20.7108 21.2838 20.6032 21.2332 20.521 21.1532C20.4388 21.0732 20.3869 20.9684 20.3738 20.856L20.3039 20.2605L19.6931 20.193C19.5775 20.1804 19.4697 20.1299 19.3874 20.0499C19.3051 19.9699 19.2532 19.865 19.24 19.7525L19.1445 18.9345L17.9116 17.7345C17.8181 17.6402 17.7663 17.5139 17.7674 17.3828C17.7686 17.2517 17.8226 17.1263 17.9179 17.0336C18.0131 16.9409 18.142 16.8883 18.2767 16.8872C18.4113 16.886 18.5411 16.9364 18.638 17.0275L19.9957 18.35C20.078 18.4298 20.1299 18.5346 20.1426 18.647L20.2125 19.243L20.8238 19.31C20.9393 19.3227 21.047 19.3733 21.1292 19.4533C21.2114 19.5333 21.2633 19.6381 21.2763 19.7505L21.3462 20.347L21.9596 20.415C22.075 20.4277 22.1825 20.4781 22.2647 20.558L22.6377 20.9215C22.6889 20.9714 22.7287 21.0313 22.7544 21.0972C22.7802 21.1631 22.7913 21.2336 22.7871 21.304L22.6895 22.9375C22.6822 23.0599 22.6289 23.1754 22.5398 23.2621C22.4506 23.3487 22.3319 23.4005 22.2061 23.4075L20.5289 23.5015L20.4996 23.503Z" fill="#95E1D3"/>
</svg>
