<svg width="39" height="37" viewBox="0 0 39 37" fill="none" xmlns="http://www.w3.org/2000/svg">
<g clip-path="url(#clip0_6_2)">
<path d="M37.0582 0.0264587H2.84586C1.79624 0.0264587 0.94519 0.854701 0.94519 1.87645V24.0766C0.94519 25.0983 1.79624 25.9265 2.84586 25.9265H13.6164C15.3652 25.9285 16.7822 27.3078 16.7842 29.0099C16.7811 30.7115 15.3647 32.0901 13.6164 32.0931C13.6076 32.0931 13.6005 32.0976 13.5916 32.0982C13.5457 32.1017 13.5002 32.1105 13.4561 32.1247C13.4209 32.1313 13.3865 32.1407 13.3529 32.1525C13.3162 32.1719 13.2817 32.1946 13.2495 32.2201C13.2167 32.2408 13.1857 32.2642 13.1572 32.29C13.1336 32.3176 13.1123 32.3471 13.0937 32.3781C13.0665 32.4144 13.0436 32.4535 13.0254 32.4946C13.0254 32.5021 13.0165 32.5069 13.0139 32.515L11.7468 36.2149C11.6362 36.5382 11.8158 36.8874 12.1478 36.995C12.2127 37.0161 12.2808 37.0267 12.3493 37.0265H27.5548C27.9047 37.0262 28.1882 36.75 28.1879 36.4094C28.1879 36.3433 28.1769 36.2777 28.1554 36.2149L26.8884 32.515C26.8884 32.5069 26.8795 32.5021 26.877 32.4946C26.8586 32.4536 26.8357 32.4148 26.8086 32.3787C26.79 32.3474 26.7688 32.3177 26.7451 32.29C26.7165 32.2642 26.6854 32.2408 26.6526 32.2201C26.6205 32.1946 26.586 32.1719 26.5494 32.1525C26.5158 32.1407 26.4812 32.1313 26.446 32.1247C26.4021 32.1107 26.3567 32.1017 26.3105 32.0982C26.3016 32.0982 26.2948 32.0931 26.2859 32.0931C24.5375 32.0901 23.1212 30.7115 23.118 29.0099C23.1202 27.3078 24.5371 25.9285 26.2859 25.9265H37.0582C38.108 25.9265 38.9589 25.0983 38.9589 24.0766V1.87645C38.9589 0.854701 38.108 0.0264587 37.0582 0.0264587ZM21.8527 29.0099C21.8557 31.2173 23.5674 33.0681 25.8227 33.3024L26.6754 35.7932H13.2287L14.0816 33.3024C16.3368 33.0681 18.0483 31.2176 18.0513 29.0099C18.0517 27.8485 17.5693 26.7363 16.7138 25.9265H23.1902C22.3348 26.7363 21.8525 27.8485 21.8527 29.0099ZM37.6918 24.0766C37.6918 24.4171 37.4081 24.6932 37.0582 24.6932H2.84586C2.49591 24.6932 2.21234 24.4171 2.21234 24.0766V22.2266H37.6918V24.0766ZM2.21234 20.9932V1.87645C2.21234 1.53583 2.49591 1.25982 2.84586 1.25982H37.0582C37.4081 1.25982 37.6918 1.53583 37.6918 1.87645V20.9932H2.21234Z" fill="#95E1D3"/>
<path d="M27.7551 9.30862L25.931 8.71641L26.7907 7.04159C26.9125 6.80426 26.8645 6.51751 26.6716 6.33008L24.8798 4.58608C24.6872 4.3983 24.3926 4.35156 24.1488 4.47016L22.428 5.30693L21.8197 3.5315C21.7336 3.27992 21.4917 3.11013 21.2192 3.10978H18.6849C18.4123 3.1099 18.1704 3.27992 18.0844 3.5315L17.4762 5.30693L15.7553 4.47016C15.5114 4.35156 15.217 4.3983 15.0242 4.58608L13.2326 6.33008C13.0398 6.51763 12.9917 6.80426 13.1133 7.04159L13.973 8.71641L12.1492 9.30862C11.8905 9.3924 11.7161 9.62774 11.7157 9.89311V12.3598C11.7161 12.6251 11.8905 12.8605 12.1492 12.9443L13.973 13.5363L13.1133 15.2112C12.9917 15.4487 13.0398 15.7354 13.2326 15.9229L15.0242 17.6669C15.217 17.8546 15.5114 17.9011 15.7553 17.7828L17.4762 16.946L18.0844 18.7213C18.1704 18.973 18.4123 19.1428 18.6849 19.1432H21.2192C21.4917 19.1429 21.7336 18.973 21.8199 18.7213L22.4281 16.946L24.1488 17.7828C24.3926 17.9011 24.6872 17.8546 24.8798 17.6669L26.6716 15.9229C26.8645 15.7352 26.9125 15.4487 26.7907 15.2112L25.931 13.5363L27.7551 12.9443C28.0135 12.8605 28.1882 12.6251 28.1883 12.3598V9.89311C28.1882 9.62785 28.0135 9.3924 27.7551 9.30862ZM26.9212 11.9152L24.8368 12.5935C24.5049 12.7014 24.3258 13.0508 24.4366 13.3739C24.4461 13.4011 24.4573 13.4279 24.4707 13.4537L25.4533 15.3655L24.3072 16.4809L22.3432 15.5246C22.0307 15.371 21.6498 15.4931 21.4921 15.797C21.478 15.824 21.466 15.8522 21.4562 15.8809L20.7625 17.9098H19.1418L18.4449 15.8809C18.3341 15.5578 17.9751 15.3836 17.6432 15.4914C17.6151 15.5007 17.5876 15.5115 17.5611 15.5246L15.597 16.4809L14.451 15.3655L15.4336 13.4538C15.5899 13.149 15.4627 12.7787 15.1497 12.6266C15.123 12.6139 15.0955 12.6028 15.0674 12.5935L12.983 11.9152V10.3378L15.0674 9.6594C15.3994 9.55167 15.5785 9.20228 15.4676 8.87919C15.4582 8.85173 15.4469 8.82509 15.4336 8.79926L14.451 6.88758L15.597 5.77212L17.5611 6.72843C17.8743 6.88057 18.2546 6.75682 18.4109 6.45196C18.4241 6.42613 18.4355 6.39937 18.4449 6.37215L19.1418 4.34326H20.7625L21.4594 6.37215C21.5695 6.69536 21.928 6.87052 22.2601 6.76337C22.2897 6.7539 22.3185 6.74222 22.3463 6.72843L24.3105 5.77212L25.4565 6.88758L24.4738 8.79926C24.3177 9.10401 24.4447 9.47431 24.7578 9.62633C24.7845 9.63919 24.8119 9.65029 24.8401 9.65952L26.9245 10.3378L26.9212 11.9152Z" fill="#95E1D3"/>
<path d="M19.952 7.4265C17.8527 7.4265 16.1507 9.08298 16.1507 11.1265C16.1507 13.1698 17.8527 14.8264 19.952 14.8264C22.0515 14.8264 23.7533 13.1698 23.7533 11.1265C23.7513 9.08391 22.0505 7.42848 19.952 7.4265ZM19.952 13.5931C18.5524 13.5931 17.4178 12.4887 17.4178 11.1265C17.4178 9.7641 18.5524 8.65974 19.952 8.65974C21.3517 8.65974 22.4863 9.7641 22.4863 11.1265C22.4863 12.4887 21.3517 13.5931 19.952 13.5931Z" fill="#95E1D3"/>
</g>
<defs>
<clipPath id="clip0_6_2">
<rect width="38.0137" height="37" fill="white" transform="translate(0.94519)"/>
</clipPath>
</defs>
</svg>
